<mxfile host="app.diagrams.net" modified="2023-06-02T13:07:00.561Z" agent="Mozilla/5.0 (X11; Ubuntu; Linux x86_64; rv:109.0) Gecko/20100101 Firefox/113.0" etag="qZg2ck00alOJy9SzidOd" version="21.3.7" type="github">
  <diagram name="Side-1" id="BGmjigc0Rt-huiZ8Q9mW">
    <mxGraphModel dx="1360" dy="1964" grid="1" gridSize="10" guides="1" tooltips="1" connect="1" arrows="1" fold="1" page="1" pageScale="1" pageWidth="827" pageHeight="1169" math="0" shadow="0">
      <root>
        <mxCell id="0" />
        <mxCell id="1" parent="0" />
        <mxCell id="uzUSr3Tvpn1n5vXdFkaZ-1" value="Server" style="ellipse;whiteSpace=wrap;html=1;aspect=fixed;fillColor=#dae8fc;strokeColor=#6c8ebf;" vertex="1" parent="1">
          <mxGeometry x="130" y="40" width="80" height="80" as="geometry" />
        </mxCell>
        <mxCell id="uzUSr3Tvpn1n5vXdFkaZ-2" style="rounded=0;orthogonalLoop=1;jettySize=auto;html=1;strokeWidth=4;endArrow=none;endFill=0;exitX=1;exitY=0;exitDx=0;exitDy=0;entryX=0.5;entryY=1;entryDx=0;entryDy=0;" edge="1" parent="1" source="uzUSr3Tvpn1n5vXdFkaZ-3" target="uzUSr3Tvpn1n5vXdFkaZ-1">
          <mxGeometry relative="1" as="geometry">
            <mxPoint x="160" y="130" as="targetPoint" />
          </mxGeometry>
        </mxCell>
        <mxCell id="uzUSr3Tvpn1n5vXdFkaZ-3" value="&lt;div&gt;Client&lt;/div&gt;" style="ellipse;whiteSpace=wrap;html=1;aspect=fixed;fillColor=#d5e8d4;strokeColor=#82b366;" vertex="1" parent="1">
          <mxGeometry x="50" y="150" width="80" height="80" as="geometry" />
        </mxCell>
        <mxCell id="uzUSr3Tvpn1n5vXdFkaZ-4" style="rounded=0;orthogonalLoop=1;jettySize=auto;html=1;exitX=0;exitY=0;exitDx=0;exitDy=0;entryX=0.5;entryY=1;entryDx=0;entryDy=0;strokeWidth=4;endArrow=none;endFill=0;" edge="1" parent="1" source="uzUSr3Tvpn1n5vXdFkaZ-5" target="uzUSr3Tvpn1n5vXdFkaZ-1">
          <mxGeometry relative="1" as="geometry" />
        </mxCell>
        <mxCell id="uzUSr3Tvpn1n5vXdFkaZ-5" value="Relay" style="ellipse;whiteSpace=wrap;html=1;aspect=fixed;fillColor=#fff2cc;strokeColor=#d6b656;" vertex="1" parent="1">
          <mxGeometry x="210" y="150" width="80" height="80" as="geometry" />
        </mxCell>
        <mxCell id="uzUSr3Tvpn1n5vXdFkaZ-6" value="" style="shape=flexArrow;endArrow=classic;html=1;rounded=0;fillColor=#8ff0a4;" edge="1" parent="1">
          <mxGeometry width="50" height="50" relative="1" as="geometry">
            <mxPoint x="310" y="120" as="sourcePoint" />
            <mxPoint x="360" y="120" as="targetPoint" />
          </mxGeometry>
        </mxCell>
        <mxCell id="uzUSr3Tvpn1n5vXdFkaZ-7" value="Server" style="ellipse;whiteSpace=wrap;html=1;aspect=fixed;fillColor=#dae8fc;strokeColor=#6c8ebf;" vertex="1" parent="1">
          <mxGeometry x="460" y="40" width="80" height="80" as="geometry" />
        </mxCell>
        <mxCell id="uzUSr3Tvpn1n5vXdFkaZ-8" style="rounded=0;orthogonalLoop=1;jettySize=auto;html=1;strokeWidth=4;endArrow=none;endFill=0;exitX=1;exitY=0;exitDx=0;exitDy=0;entryX=0.5;entryY=1;entryDx=0;entryDy=0;" edge="1" parent="1" source="uzUSr3Tvpn1n5vXdFkaZ-9" target="uzUSr3Tvpn1n5vXdFkaZ-7">
          <mxGeometry relative="1" as="geometry">
            <mxPoint x="490" y="130" as="targetPoint" />
          </mxGeometry>
        </mxCell>
        <mxCell id="uzUSr3Tvpn1n5vXdFkaZ-9" value="&lt;div&gt;Client&lt;/div&gt;" style="ellipse;whiteSpace=wrap;html=1;aspect=fixed;fillColor=#d5e8d4;strokeColor=#82b366;" vertex="1" parent="1">
          <mxGeometry x="380" y="150" width="80" height="80" as="geometry" />
        </mxCell>
        <mxCell id="uzUSr3Tvpn1n5vXdFkaZ-10" style="rounded=0;orthogonalLoop=1;jettySize=auto;html=1;exitX=0.5;exitY=0;exitDx=0;exitDy=0;entryX=0.5;entryY=1;entryDx=0;entryDy=0;strokeWidth=4;endArrow=none;endFill=0;edgeStyle=orthogonalEdgeStyle;curved=1;" edge="1" parent="1" source="uzUSr3Tvpn1n5vXdFkaZ-11" target="uzUSr3Tvpn1n5vXdFkaZ-9">
          <mxGeometry relative="1" as="geometry" />
        </mxCell>
        <mxCell id="uzUSr3Tvpn1n5vXdFkaZ-11" value="Relay" style="ellipse;whiteSpace=wrap;html=1;aspect=fixed;fillColor=#fff2cc;strokeColor=#d6b656;" vertex="1" parent="1">
          <mxGeometry x="540" y="150" width="80" height="80" as="geometry" />
        </mxCell>
        <mxCell id="uzUSr3Tvpn1n5vXdFkaZ-12" value="Server" style="ellipse;whiteSpace=wrap;html=1;aspect=fixed;fillColor=#dae8fc;strokeColor=#6c8ebf;" vertex="1" parent="1">
          <mxGeometry x="650" y="40" width="80" height="80" as="geometry" />
        </mxCell>
        <mxCell id="uzUSr3Tvpn1n5vXdFkaZ-13" style="rounded=0;orthogonalLoop=1;jettySize=auto;html=1;strokeWidth=4;endArrow=none;endFill=0;exitX=0.5;exitY=0;exitDx=0;exitDy=0;entryX=0.5;entryY=1;entryDx=0;entryDy=0;" edge="1" parent="1" source="uzUSr3Tvpn1n5vXdFkaZ-16" target="uzUSr3Tvpn1n5vXdFkaZ-12">
          <mxGeometry relative="1" as="geometry">
            <mxPoint x="670" y="180" as="targetPoint" />
          </mxGeometry>
        </mxCell>
        <mxCell id="uzUSr3Tvpn1n5vXdFkaZ-14" style="rounded=0;orthogonalLoop=1;jettySize=auto;html=1;entryX=0.5;entryY=1;entryDx=0;entryDy=0;strokeWidth=4;endArrow=none;endFill=0;" edge="1" parent="1" source="uzUSr3Tvpn1n5vXdFkaZ-15" target="uzUSr3Tvpn1n5vXdFkaZ-16">
          <mxGeometry relative="1" as="geometry" />
        </mxCell>
        <mxCell id="uzUSr3Tvpn1n5vXdFkaZ-15" value="&lt;div&gt;Client&lt;/div&gt;" style="ellipse;whiteSpace=wrap;html=1;aspect=fixed;fillColor=#d5e8d4;strokeColor=#82b366;" vertex="1" parent="1">
          <mxGeometry x="650" y="280" width="80" height="80" as="geometry" />
        </mxCell>
        <mxCell id="uzUSr3Tvpn1n5vXdFkaZ-16" value="Relay" style="ellipse;whiteSpace=wrap;html=1;aspect=fixed;fillColor=#fff2cc;strokeColor=#d6b656;" vertex="1" parent="1">
          <mxGeometry x="650" y="160" width="80" height="80" as="geometry" />
        </mxCell>
        <mxCell id="uzUSr3Tvpn1n5vXdFkaZ-17" value="&lt;font style=&quot;font-size: 19px;&quot;&gt;Before relay&lt;/font&gt;" style="text;html=1;strokeColor=none;fillColor=none;align=center;verticalAlign=middle;whiteSpace=wrap;rounded=0;" vertex="1" parent="1">
          <mxGeometry x="95" y="-10" width="150" height="30" as="geometry" />
        </mxCell>
        <mxCell id="uzUSr3Tvpn1n5vXdFkaZ-19" value="&lt;font style=&quot;font-size: 19px;&quot;&gt;After relay&lt;/font&gt;" style="text;html=1;strokeColor=none;fillColor=none;align=center;verticalAlign=middle;whiteSpace=wrap;rounded=0;" vertex="1" parent="1">
          <mxGeometry x="505" y="-10" width="150" height="30" as="geometry" />
        </mxCell>
      </root>
    </mxGraphModel>
  </diagram>
</mxfile>
